# xmcd CD database file
#
# Track frame offsets:
#	150
#	13254
#	23491
#	38212
#	50889
#	63147
#	78049
#	92134
#	107790
#	120958
#	133871
#	147169
#	161594
#	174708
#	188137
#	204302
#	222595
#	236146
#	250458
#	262150
#	274595
#	291830
#	308278
#	320951
#	335807
#
# Disc length: 4679 seconds
#
# Revision: 0
# Processed by: cddbd v1.5.2PL0 Copyright (c) Steve Scherf et al.
# Submitted via: CDex 1.70beta2
#
DISCID=79124519
DTITLE=Django reinhardt - Essential jazz classics
DYEAR=2009
DGENRE=Jazz
TTITLE0=lady be good
TTITLE1=i got rythm
TTITLE2=the man i love
TTITLE3=liza
TTITLE4=i got rythm
TTITLE5=lady be good
TTITLE6=embraceable you
TTITLE7=somebody loves me
TTITLE8=lady be good
TTITLE9=liza
TTITLE10=i got rythm
TTITLE11=the man i love
TTITLE12=i got rhythm
TTITLE13=i got rhythm
TTITLE14=C jam blues
TTITLE15=Sophisticated lady
TTITLE16=in sentimental mood
TTITLE17=solitude
TTITLE18=C jam blues
TTITLE19=ride red ride
TTITLE20=a blues riff
TTITLE21=honeysuckle rose
TTITLE22=improvisation n7
TTITLE23=duke and duke
TTITLE24=duke and duke
EXTD=YEAR: 2009
EXTT0=
EXTT1=
EXTT2=
EXTT3=
EXTT4=
EXTT5=
EXTT6=
EXTT7=
EXTT8=
EXTT9=
EXTT10=
EXTT11=
EXTT12=
EXTT13=
EXTT14=
EXTT15=
EXTT16=
EXTT17=
EXTT18=
EXTT19=
EXTT20=
EXTT21=
EXTT22=
EXTT23=
EXTT24=
PLAYORDER=
